<?xml version="1.0" encoding="iso-8859-1"?>
<!-- Uploaded to: SVG Repo, www.svgrepo.com, Generator: SVG Repo Mixer Tools -->
<svg fill="#000000" height="800px" width="800px" version="1.1" id="Layer_1" xmlns="http://www.w3.org/2000/svg" xmlns:xlink="http://www.w3.org/1999/xlink" 
	 viewBox="0 0 512 512" xml:space="preserve">
<g>
	<g>
		<g>
			<path d="M436.045,169.431c-28.836,0-43.393-42.311-50.528-77.805c-8.259-41.082-8.496-82.887-8.497-83.305
				C377.004,3.721,373.27,0,368.672,0h-66.343c-4.611,0-8.348,3.738-8.348,8.348c0,19.472-17.039,35.314-37.98,35.314
				S218.02,27.819,218.02,8.348c0-4.61-3.736-8.348-8.348-8.348h-66.343c-4.6,0-8.333,3.722-8.348,8.322
				c-0.001,0.416-0.224,42.017-8.456,83.101c-7.13,35.587-21.692,78.008-50.57,78.008c-4.611,0-8.348,3.738-8.348,8.348v325.874
				c0,4.61,3.736,8.348,8.348,8.348h360.09c4.611,0,8.348-3.738,8.348-8.348V177.779
				C444.393,173.168,440.655,169.431,436.045,169.431z M427.696,434.986h-78.621c-4.611,0-8.348,3.738-8.348,8.348
				s3.736,8.348,8.348,8.348h78.621v43.622H84.303v-43.622h222.408c4.611,0,8.348-3.738,8.348-8.348s-3.736-8.348-8.348-8.348
				H84.303V185.385c14.76-2.689,27.365-12.684,37.554-29.812c8.845-14.868,15.923-35.347,21.037-60.87
				c6.399-31.934,8.136-63.44,8.606-78.008h50.527c4.211,24.724,26.811,43.661,53.973,43.661c27.162,0,49.763-18.937,53.974-43.661
				h50.527c0.471,14.568,2.207,46.073,8.606,78.008c5.114,25.522,12.191,46.002,21.036,60.87
				c10.189,17.129,22.794,27.123,37.554,29.812V434.986z"/>
			<path d="M254.759,139.616c-30.573,0-54.323,14.884-54.323,54.992v5.297c0,38.847,22.741,50.956,50.786,50.956
				c15.16,0,28.551-4.541,36.89-15.641v35.316c0,24.469-12.38,35.821-33.604,35.821c-17.939,0-32.847-9.838-32.847-25.73
				c0-6.307-5.559-8.324-11.117-8.324c-6.569,0-10.106,2.271-10.106,9.334c0,21.694,17.939,43.893,53.565,43.893
				c31.33,0,55.334-14.884,55.334-54.992v-75.93C309.335,154.498,285.584,139.616,254.759,139.616z M288.111,201.166
				c0,23.208-12.886,32.037-33.099,32.037c-20.972,0-33.352-9.586-33.352-34.307v-5.297c0-24.721,12.38-35.821,33.099-35.821
				c20.972,0,33.352,11.099,33.352,35.821V201.166z"/>
			<path d="M289.875,362.562h-67.75c-4.611,0-8.348,3.738-8.348,8.348s3.736,8.348,8.348,8.348h67.75
				c4.611,0,8.348-3.738,8.348-8.348S294.486,362.562,289.875,362.562z"/>
		</g>
	</g>
</g>
</svg>